<?xml version="1.0" encoding="UTF-8"?>
<svg version="1.1" viewBox="0 0 1984 1728" width="1280" height="1280" xmlns="http://www.w3.org/2000/svg">
<path transform="translate(0)" d="m0 0h1984v1728h-1984z" fill="#FEFEFE"/>
<path transform="translate(1288,258)" d="m0 0h392l1 2 1 69v72l-3 1-72 1-155 1-6 1-1 26-1 50v112l1 96 1 76 1 1h209l-1 144-1 1-85 1-125 1v188l1 82 1 118 1 6 10 1h222l1 1 1 10 1 54v80l-11 1h-353l-26-1-2-4-1-62-1-166v-350l-1-612z" fill="#E451E9"/>
<path transform="translate(823,257)" d="m0 0h21l1 1 1 25v393l1 136v446l-2 38-3 20-6 23-8 22-10 20-8 12-9 10-11 11-18 13-14 8-21 8-15 4-22 4-8 1-41 2h-135l-4-2v-79l1-63 2-1h59l30-1 25-2 16-3 10-4 8-6 8-9 5-7 6-16 3-18 1-18 1-68 1-452v-446l19-1z" fill="#E451E9"/>
</svg>
