<?xml version="1.0" encoding="UTF-8"?>
<svg version="1.1" viewBox="0 0 2048 2048" width="1280" height="1280" xmlns="http://www.w3.org/2000/svg">
<path transform="translate(1218,53)" d="m0 0h57l19 2 11 5 11 7 9 8 7 8 11 14 6 10 6 17 6 23 2-1 3 14v12l3 1 1 9v23h2l1 10 1 2v44l-3 15-1 2-1 9-8 16-9 13-6 7-14 10-8 5-7 3-15 7-21 10-15 9-11 7-13 11-7 7-6 5-9 11-9 10-7 8-7 10h-2l-2 4-9 12-9 13-8 11-11 14-9 11-2 3h-2l-2 4-8 11-12 13-6 7h-2l-2 4-13 10-15 9-8 5-13 4-5 2-11 1h-21l-7-3-13-4-17-7-19-11-10-7-18-11-18-13-28-20-16-12-21-14-16-8-11-4h-1l19 8 11 7 1 2-5-2-14-7-11-4 4 2 5 2-3 1-16-4h-11l-12 2-9 4-2-1-4 2-5 1-1 3-4 1v2h-2l-1 5-3 1-1 7-2 1-3 10-2-2-4 15-2 18-1 5-2 9-1 2 2 1-1 5v17l-2 6v10h-1l-2-12-1 5-1 38-1 19-1 46-1 155v163l1 32 2 28 5 25 8 15 9 9 2 1v2l6 2 10 4 15 2 12-1 16-7 27-15 9-7 14-10 17-14 13-10 13-11 11-9 12-12 8-7 12-11 8-7 14-12 10-9 11-9 17-16 10-8v-3l5-2 17-16 12-12 8-6 13-12 5-5h2l2-4 9-9 8-4 11-10 8-6 7-6v-3l8-6 22-22-9 6-8 7-5 2 6-7 12-9 10-9 11-11 7-8 21-21 11-9 13-11 2 1-4 5-11 9-14 13-5 4-3 4h-2l-2 4-14 15-2 4 6-4 7-7 8-7 17-17 11-9 10-9 14-11 17-13 17-12 9-6 11-6 14-7 22-7 19-4 9-1h-15l-7 1 3-2 15-3v-1l32-3 33-2 27-1h67l64 2 5 1v1l-171 1v1l-8 1h-13l1 1 8 1 70 1 135 1 36 4 16 4 11 6 7 4 8 8 6 13 1 3v13l-5 21-18 30-6 7h-2l-2 4-11 11h-2l-1 4-6 5-3 4h-2l-2 4-8 8-8 7-8 6h-2l-5 5-6 4-5 5-4 5h-2l-2 4h-2l-1 3-5 2-1 3-4 1-5 2-2 4-1 4-5 1-1 3-6 1-1 3-3 1-3 3-8 7-12 11-13 11-12 11-10 9-12 12-14 11-5 4-9 6-10 10-3 1-1 3-5 3-12 11-8 7-7 7h-2l-2 4-10 8-8 8-5 2h-2l-17 16-10 10-8 7-11 10-1 3-4 2-5 4-5 6-8 7-11 10-6 5h-2l-2 4h-2l-2 4-7 7-5 1-4 2 2-4-3 4-2 4-23 23h-2v2l-4 2-5 6-5 3-7 8h-2l-2 4-6 10-4 13-5 14v8h-2l1 14 3 17 3 9 3 11 1 4h2l6 11 2 4 7 11v2h2l1 4 3 1 11 14 9 10 12 14 51 51 7 8 6 7 19 19v2h2l9 11 18 18 3 1 1 4 5 4 3-1 10 9 20 20 9 11 5 7v2h2l6 9 12 13 35 35 2 1v2h2v2h2v2h2v2l4 2v2h2l7 8 26 26 11 8 10 10 8 7 17 17 7 8 9 9 8 7 25 25 8 7 15 14 9 9 9 11 20 20 9 11 8 10 11 15 6 8 1 3 3 3 9 14-1 2 1 3v4l5 15 1 4v10l-1 3-2 1v3h-2l-1 7-2 7-5 5-4 5-10 7-9 5-9 2-3 3-9 2-9 1-35 1h-105l-44-1-26-1-27-3-23-6-26-8-12-6-10-7-15-9-7-6v-2l-4-1-8-6v-2l-4-2-8-6-4-2-35-35v-2l-4-1v-2l-5-2-13-12-11-11-8-7-3-2 1-2 4 2-4-3 1-2 11 8v2l1-1-7-8-11-11-8-7-38-38-7-8-5-5v-2l-3-1-9-11-20-20-6-5-2-3h-2v-2l-5-5-3-2 3-1v-2h-7l-4-4v-3l-3 1-1-2h2v-2h2l-1-2-6 2-6-5-2-4 2-2-1-6-6 2v-3l-4-1-2-5 2-3h-6l-1-3-4-1-1 2-2-1v-5l1-3-5-1-7-8-4-4v-2l-4-2-12-12-8-7-12-12 2-4-6-7-3-2v-2l-4-2-7-8-5-4-7-8-29-29-9-11-14-15-9-9-7-8-16-16-7-8-11-11-6-5-5-6-8-7-22-22-2-1v-2l-4-2-15-14-13-11-9-6-10-4 10 6-2 1-11-5-6-1 8 3-3 1-17-4-5-1-1 2-12 3-14 7-7 8-5 7-3 7-3 11v8l-2 5-2 7v3l-2 19-2 1-2 20-1 4-1 31v227l-1 68-1 27-1 6-1 8-3 8-4 16-6 14-6 11-5 7h-2l-2 4-12 11-10 6-15 6-14 4-12 3-1 1-13 1-1 1h5v1h-107l-31-1-19-3-11-3-4 2v-3l-7-1v-2h-2l-1 2-3-1v-2l-3 1-8-4v-2l-2-1v-2l-5-4-4-1v-2l-8-7-3-3v-2h-2v-2h-2v-3l-4-1-3-5-2-3-1-2-2-1-3-6-2-15-3-15v-7l-2-1-1-5-2-32-1-80 1-77 1-207 2 1 1-3h-2l1-2 2 1v-2h3l1-19 1-78 1-184 1-120 2-560 1-7 2-82-1-45v-32l2-4 2-15 2-19 4-19 4-8 2-1 2-7 2-1 1 2 1-3h2l2-5 10-16 10-10 13-8 16-6 14-3h-9l-12 1 3-2 2-2 23-3 22-1h122l46 2 42 3 19 3 12 4 7 3 7 2v2l-12-2-18-5-28-3h-8l31 3 14 3 1 2 10 2 7 3 4 1v2l12 3 6 3 8 2 3 3 14 8 3 1v2l5 2 5 3 4 1v2l4 1v2l4 1 13 9 11 9 16 11 11 6v2l5 1 11 6 9 3v2l9 2 12 2 3 1 1-2 7 2 4-1v4l1-2h5v-1h10v-2h4v2h2l1-2 1 2 1-2h5v2h2l1-4 3 1 3-1 1-2 4-1 4-4 3-1 1-2 5-2 3-2h4l1-4 13-13 9-12 4-7 1-4-1-3 1-7h2l1-4 1-5 2-2 1-13 3-7 2 1-1 9v5l2-11 2-19 2-10 2-30 4-15 6-10 8-14 11-12 9-8 11-6 24-11 15-4 32-5 20-2zm-547 136v1h7v-1zm70 3m307 21-1 3 2 1 1-4zm-5 6 1 2zm2 3m0 3m-1 1 1 2zm-2 3-2 4 1 4 2-4zm-632 15-1 6 2-2zm-9 40m575 11m-53 1m2 1m30 0 1 4 3-1-2-3zm-3 1 1 3zm-21 1m33 0m8 0m-1 1m-576 17 1 3zm0 11m0 7m1 5-1 11 2 4v-15zm0 16m412 100-13 2-4 2h8l2-1 21-1v-1zm-20 4-2 2 5-1zm-5 2m28 0m13 0m-43 1m27-1-16 1 2 2 15-1zm-30 3m-2 1m-15 24m0 2m-16 64m0 3v10l2-2-1-8zm0 12v2l3-1zm0 3m650 111v1h7v-1zm16 0m-15 4v1h8v-1zm-215 122-1 2h2zm-2 2m-1 1m2 0m-3 1m-37 36m451 29m-5 3m-553 63m265 185 1 2zm-2 2m-1 1m-1 1m-1 1m-1 1m-1 1m-1 1m-1 1m-2 1-4 5 4-2 2-3zm-5 5-1 2h2zm-2 2m-1 1m-7 6m-1 1m-2 1m-1 1m-1 1m-1 1m-486 206 4 1zm12 0 4 1zm-17 1 4 1zm21 0v1h5v-1zm5 1 3 2 3-1zm-32 1m19 0m5 0m-14 2 1 2h4v-2zm-29 19m-11 32 1 3zm655 82v2l2-1zm5 4m3 4m5 4m1 1m3 3m1 1m1 1m2 2m1 1m1 1m-376 66 1 3v-3zm2 3m2 1m1 1m1 1m1 1m2 1m2 2m33 38m5 8 1 3 1-3zm456 12m-431 12m4 3-1 4 3 1 2-2v-3zm12 14m486 45 3 5 20 20 1 2h2l2 4 9 9 8 7 20 20h2l2 4 10 11 20 26 8 7 3 7 2-2-6-10-21-28-9-11-36-36-11-9-22-22h-2v-2zm-363 87m1 1m1 1m2 2 2 2v-2zm5 0m1 1m-4 1 2 2v-2z" fill="#FEFEFE"/>
<path transform="translate(1242,1336)" d="m0 0 4 1 11 14 10 11 7 8 15 16 7 6v2l4 2 7 8 12 12 7 8 12 13 9 10 20 20 7 8 25 25 1 3-4-2-9-8-8-7-9-10-7-8-9-9-7-8-18-18-7-8-11-12-6-7-8-7-20-20-7-8-10-11-8-11-8-10z" fill="#FEFEFE"/>
<path transform="translate(1256,44)" d="m0 0 17 1v2h2v-2l10 1 3 2 7 2 8 4 9 3 9 6 11 9 10 13 8 14-1 2-6-9-9-11-12-13-13-9-25-10h-5v1h-68l-2-1v-2l19-2z" fill="#FEFEFE"/>
<path transform="translate(1455,1562)" d="m0 0 4 2 12 11 8 7 15 16 22 22h-3l-14-13-8-7-33-33v-2h-2z" fill="#FEFEFE"/>
<path transform="translate(1138,845)" d="m0 0h5l-5 5-13 11-12 8v-3l9-9 5-4 3-1 5-5z" fill="#FEFEFE"/>
<path transform="translate(1060,914)" d="m0 0v3l-16 15-15 12-2-1 5-5 11-10 8-7 6-5z" fill="#FEFEFE"/>
<path transform="translate(974,988)" d="m0 0 2 1-27 27-8 7-3 3-2-1 18-18h2l2-4 15-14z" fill="#FEFEFE"/>
<path transform="translate(1033,237)" d="m0 0 1 2-5 10-11 12-3 4h-2l-1 3-4 3h-2l2-4 8-8 5-4 7-10z" fill="#FEFEFE"/>
<path transform="translate(1328,1898)" d="m0 0 5 2 6 5 5 2 4 3-1 3-5-1-10-9z" fill="#FEFEFE"/>
<path transform="translate(1086,890)" d="m0 0 2 1-4 5h-2l-1 3-16 12h-3l10-9 11-9z" fill="#FEFEFE"/>
<path transform="translate(954,1506)" d="m0 0 7 6 7 7 1 4h2l2 4-4-2-11-11-2-4z" fill="#FEFEFE"/>
<path transform="translate(1350,1912)" d="m0 0 3 2 5 5 2 5-5-2-7-6z" fill="#FEFEFE"/>
<path transform="translate(1354,108)" d="m0 0 2 1 4 10 2 9v5l-2-3-2-10-4-10z" fill="#FEFEFE"/>
<path transform="translate(766,201)" d="m0 0 8 1 10 4 3 1-1 2-10-3-10-4z" fill="#FEFEFE"/>
<path transform="translate(738,1480)" d="m0 0h1v23h-2v-22z" fill="#FEFEFE"/>
<path transform="translate(924,1477)" d="m0 0 7 6 1 2-5-1-5-6z" fill="#FEFEFE"/>
<path transform="translate(1020,950)" d="m0 0v3l-10 10-2-2 8-7z" fill="#FEFEFE"/>
<path transform="translate(1613,686)" d="m0 0 17 1v1h-21z" fill="#FEFEFE"/>
<path transform="translate(1312,1887)" d="m0 0 4 2 8 7h-3l-9-8z" fill="#FEFEFE"/>
<path transform="translate(1099,876)" d="m0 0 3 1-9 8-2-1z" fill="#FEFEFE"/>
<path transform="translate(936,1489)" d="m0 0 4 2 6 7-4-2z" fill="#FEFEFE"/>
<path transform="translate(1007,963)" d="m0 0 2 1-7 7-2-1 5-6z" fill="#FEFEFE"/>
<path transform="translate(935,1491)" d="m0 0 4 2 5 6-4-2z" fill="#FEFEFE"/>
<path transform="translate(1146,837)" d="m0 0v3l-3 1-1 3h-2l2-4z" fill="#FEFEFE"/>
<path transform="translate(946,1498)" d="m0 0 7 6 1 2-4-2-4-4z" fill="#FEFEFE"/>
<path transform="translate(1359,1921)" d="m0 0 4 1v4l-3-1z" fill="#FEFEFE"/>
<path transform="translate(1239,1810)" d="m0 0 4 2 4 5-4-2z" fill="#FEFEFE"/>
<path transform="translate(992,280)" d="m0 0 3 1-6 4h-2l1-3z" fill="#FEFEFE"/>
<path transform="translate(840,469)" d="m0 0 5 1 4 2-3 1-6-3z" fill="#FEFEFE"/>
<path transform="translate(921,1037)" d="m0 0 2 1-5 5-2-1z" fill="#FEFEFE"/>
<path transform="translate(1350,101)" d="m0 0 4 4-1 3-3-5z" fill="#FEFEFE"/>
<path transform="translate(1115,68)" d="m0 0 3 1-7 2 1-2z" fill="#FEFEFE"/>
<path transform="translate(1231,1803)" d="m0 0 4 2 1 2-4-2z" fill="#FEFEFE"/>
<path transform="translate(1232,1801)" d="m0 0 4 2 1 2-4-2z" fill="#FEFEFE"/>
<path transform="translate(933,1027)" d="m0 0 2 1-3 3-2-1z" fill="#FEFEFE"/>
<path transform="translate(1e3 272)" d="m0 0 2 1-3 3-2-1z" fill="#FEFEFE"/>
<path transform="translate(1025,944)" d="m0 0 2 1-4 3z" fill="#FEFEFE"/>
<path transform="translate(1577,893)" d="m0 0 2 1-4 3z" fill="#FEFEFE"/>
<path transform="translate(861,477)" d="m0 0 4 1 1 2-5-2z" fill="#FEFEFE"/>
<path transform="translate(1241,1809)" d="m0 0 4 2h-3z" fill="#FEFEFE"/>
<path transform="translate(1099,1663)" d="m0 0h3l-1 3z" fill="#FEFEFE"/>
<path transform="translate(926,1033)" d="m0 0 2 1-4 2z" fill="#FEFEFE"/>
<path transform="translate(1455,1007)" d="m0 0 2 1-4 2z" fill="#FEFEFE"/>
<path transform="translate(1104,872)" d="m0 0 3 1-4 2z" fill="#FEFEFE"/>
<path transform="translate(1036,233)" d="m0 0v3l-2 1z" fill="#FEFEFE"/>
<path transform="translate(1367,162)" d="m0 0h1v6h-1z" fill="#FEFEFE"/>
<path transform="translate(1229,1798)" d="m0 0 3 1-1 2z" fill="#FEFEFE"/>
<path transform="translate(973,1527)" d="m0 0 3 1-1 2z" fill="#FEFEFE"/>
<path transform="translate(944,1499)" d="m0 0 3 3-3-1z" fill="#FEFEFE"/>
<path transform="translate(1099,75)" d="m0 0 2 1-4 1z" fill="#FEFEFE"/>
<path transform="translate(1373,1931)" d="m0 0 2 1h-3z" fill="#FEFEFE"/>
<path transform="translate(1363,1926)" d="m0 0 3 1h-3z" fill="#FEFEFE"/>
<path transform="translate(419,1921)" d="m0 0h2v2h-2z" fill="#FEFEFE"/>
<path transform="translate(1245,1812)" d="m0 0 3 1h-3z" fill="#FEFEFE"/>
<path transform="translate(1111,1670)" d="m0 0 2 1h-3z" fill="#FEFEFE"/>
<path transform="translate(735,1488)" d="m0 0v3z" fill="#FEFEFE"/>
<path transform="translate(906,1458)" d="m0 0 2 1-1 2z" fill="#FEFEFE"/>
<path transform="translate(902,1454)" d="m0 0 2 1-1 2z" fill="#FEFEFE"/>
<path transform="translate(822,1379)" d="m0 0 3 1h-3z" fill="#FEFEFE"/>
<path transform="translate(1220,1304)" d="m0 0 2 1-1 2z" fill="#FEFEFE"/>
<path transform="translate(1385,1057)" d="m0 0 2 1h-3z" fill="#FEFEFE"/>
<path transform="translate(1343,693)" d="m0 0 4 1z" fill="#FEFEFE"/>
<path transform="translate(751,573)" d="m0 0 1 4z" fill="#FEFEFE"/>
<path transform="translate(785,471)" d="m0 0 2 1h-3z" fill="#FEFEFE"/>
<path transform="translate(918,276)" d="m0 0v3z" fill="#FEFEFE"/>
<path transform="translate(868,261)" d="m0 0 3 1h-3z" fill="#FEFEFE"/>
<path transform="translate(864,258)" d="m0 0 3 1h-3z" fill="#FEFEFE"/>
<path transform="translate(414,235)" d="m0 0v3z" fill="#FEFEFE"/>
<path transform="translate(1354,85)" d="m0 0 2 1-1 2z" fill="#FEFEFE"/>
<path transform="translate(1376,1932)" d="m0 0 2 2h-2z" fill="#FEFEFE"/>
<path transform="translate(1239,1807)" d="m0 0 2 2h-2z" fill="#FEFEFE"/>
<path transform="translate(1237,1805)" d="m0 0 2 2h-2z" fill="#FEFEFE"/>
<path transform="translate(1221,1793)" d="m0 0 2 2h-2z" fill="#FEFEFE"/>
<path transform="translate(1222,1791)" d="m0 0 2 2h-2z" fill="#FEFEFE"/>
<path transform="translate(1037,1591)" d="m0 0 2 1-2 1z" fill="#FEFEFE"/>
<path transform="translate(1452,1558)" d="m0 0 2 2h-2z" fill="#FEFEFE"/>
<path transform="translate(948,1503)" d="m0 0 2 2h-2z" fill="#FEFEFE"/>
<path transform="translate(934,1487)" d="m0 0h2l-1 2z" fill="#FEFEFE"/>
<path transform="translate(932,1485)" d="m0 0 2 2h-2z" fill="#FEFEFE"/>
<path transform="translate(922,1475)" d="m0 0 2 2h-2z" fill="#FEFEFE"/>
<path transform="translate(916,1469)" d="m0 0 2 2h-2z" fill="#FEFEFE"/>
<path transform="translate(914,1467)" d="m0 0 2 2h-2z" fill="#FEFEFE"/>
<path transform="translate(910,1463)" d="m0 0 2 2h-2z" fill="#FEFEFE"/>
<path transform="translate(908,1461)" d="m0 0h2l-1 2z" fill="#FEFEFE"/>
<path transform="translate(1265,1166)" d="m0 0 2 1-2 1z" fill="#FEFEFE"/>
<path transform="translate(1036,941)" d="m0 0 1 2-2-1z" fill="#FEFEFE"/>
<path transform="translate(1136,853)" d="m0 0 1 2-2-1z" fill="#FEFEFE"/>
<path transform="translate(747,590)" d="m0 0 1 2-2-1z" fill="#FEFEFE"/>
<path transform="translate(393,305)" d="m0 0h2l-1 2z" fill="#FEFEFE"/>
<path transform="translate(954,293)" d="m0 0 3 1z" fill="#FEFEFE"/>
<path transform="translate(453,192)" d="m0 0 3 1z" fill="#FEFEFE"/>
<path transform="translate(458,190)" d="m0 0 3 1z" fill="#FEFEFE"/>
<path transform="translate(1363,141)" d="m0 0" fill="#FEFEFE"/>
<path transform="translate(1103,73)" d="m0 0 3 1z" fill="#FEFEFE"/>
<path transform="translate(1383,1937)" d="m0 0 2 1z" fill="#FEFEFE"/>
<path transform="translate(1380,1935)" d="m0 0 2 1z" fill="#FEFEFE"/>
<path transform="translate(1378,1934)" d="m0 0" fill="#FEFEFE"/>
<path transform="translate(1370,1931)" d="m0 0 2 1z" fill="#FEFEFE"/>
<path transform="translate(421,1923)" d="m0 0 2 1z" fill="#FEFEFE"/>
<path transform="translate(1324,1897)" d="m0 0 2 1z" fill="#FEFEFE"/>
<path transform="translate(1282,1884)" d="m0 0" fill="#FEFEFE"/>
<path transform="translate(1302,1875)" d="m0 0" fill="#FEFEFE"/>
<path transform="translate(1744,1873)" d="m0 0" fill="#FEFEFE"/>
<path transform="translate(1719,1842)" d="m0 0" fill="#FEFEFE"/>
<path transform="translate(1098,1659)" d="m0 0" fill="#FEFEFE"/>
<path transform="translate(1454,1560)" d="m0 0" fill="#FEFEFE"/>
<path transform="translate(918,1471)" d="m0 0" fill="#FEFEFE"/>
<path transform="translate(904,1457)" d="m0 0 2 1z" fill="#FEFEFE"/>
<path transform="translate(818,1380)" d="m0 0 2 1z" fill="#FEFEFE"/>
<path transform="translate(814,1378)" d="m0 0 2 1z" fill="#FEFEFE"/>
<path transform="translate(811,1377)" d="m0 0 2 1z" fill="#FEFEFE"/>
<path transform="translate(1241,1334)" d="m0 0" fill="#FEFEFE"/>
<path transform="translate(1219,1302)" d="m0 0" fill="#FEFEFE"/>
<path transform="translate(1214,1298)" d="m0 0" fill="#FEFEFE"/>
<path transform="translate(1210,1285)" d="m0 0 2 1z" fill="#FEFEFE"/>
<path transform="translate(1581,890)" d="m0 0 2 1z" fill="#FEFEFE"/>
<path transform="translate(1131,857)" d="m0 0 2 1z" fill="#FEFEFE"/>
<path transform="translate(1278,725)" d="m0 0 2 1z" fill="#FEFEFE"/>
<path transform="translate(1302,709)" d="m0 0 2 1z" fill="#FEFEFE"/>
<path transform="translate(1312,704)" d="m0 0 2 1z" fill="#FEFEFE"/>
<path transform="translate(1334,696)" d="m0 0 2 1z" fill="#FEFEFE"/>
<path transform="translate(1337,695)" d="m0 0 2 1z" fill="#FEFEFE"/>
<path transform="translate(751,565)" d="m0 0" fill="#FEFEFE"/>
<path transform="translate(752,556)" d="m0 0" fill="#FEFEFE"/>
<path transform="translate(860,479)" d="m0 0 2 1z" fill="#FEFEFE"/>
<path transform="translate(855,476)" d="m0 0 2 1z" fill="#FEFEFE"/>
<path transform="translate(853,475)" d="m0 0 2 1z" fill="#FEFEFE"/>
<path transform="translate(851,474)" d="m0 0 2 1z" fill="#FEFEFE"/>
<path transform="translate(849,473)" d="m0 0 2 1z" fill="#FEFEFE"/>
<path transform="translate(958,293)" d="m0 0 2 1z" fill="#FEFEFE"/>
<path transform="translate(905,281)" d="m0 0 2 1z" fill="#FEFEFE"/>
<path transform="translate(921,276)" d="m0 0" fill="#FEFEFE"/>
<path transform="translate(792,210)" d="m0 0 2 1z" fill="#FEFEFE"/>
<path transform="translate(456,191)" d="m0 0 2 1z" fill="#FEFEFE"/>
<path transform="translate(462,187)" d="m0 0 2 1z" fill="#FEFEFE"/>
<path transform="translate(1360,141)" d="m0 0" fill="#FEFEFE"/>
<path transform="translate(1095,77)" d="m0 0 2 1z" fill="#FEFEFE"/>
<path transform="translate(1340,73)" d="m0 0 2 1z" fill="#FEFEFE"/>
<path transform="translate(1107,72)" d="m0 0 2 1z" fill="#FEFEFE"/>
<path transform="translate(1109,71)" d="m0 0 2 1z" fill="#FEFEFE"/>
<path transform="translate(1422,1951)" d="m0 0" fill="#FEFEFE"/>
<path transform="translate(626,1944)" d="m0 0" fill="#FEFEFE"/>
<path transform="translate(1385,1938)" d="m0 0" fill="#FEFEFE"/>
<path transform="translate(1382,1936)" d="m0 0" fill="#FEFEFE"/>
<path transform="translate(449,1936)" d="m0 0" fill="#FEFEFE"/>
<path transform="translate(447,1936)" d="m0 0" fill="#FEFEFE"/>
<path transform="translate(437,1934)" d="m0 0" fill="#FEFEFE"/>
<path transform="translate(1369,1930)" d="m0 0" fill="#FEFEFE"/>
<path transform="translate(1368,1929)" d="m0 0" fill="#FEFEFE"/>
<path transform="translate(1367,1927)" d="m0 0" fill="#FEFEFE"/>
<path transform="translate(1366,1926)" d="m0 0" fill="#FEFEFE"/>
<path transform="translate(425,1926)" d="m0 0" fill="#FEFEFE"/>
<path transform="translate(1365,1925)" d="m0 0" fill="#FEFEFE"/>
<path transform="translate(424,1925)" d="m0 0" fill="#FEFEFE"/>
<path transform="translate(423,1924)" d="m0 0" fill="#FEFEFE"/>
<path transform="translate(416,1918)" d="m0 0" fill="#FEFEFE"/>
<path transform="translate(1750,1890)" d="m0 0" fill="#FEFEFE"/>
<path transform="translate(1749,1888)" d="m0 0" fill="#FEFEFE"/>
<path transform="translate(1748,1886)" d="m0 0" fill="#FEFEFE"/>
<path transform="translate(1746,1881)" d="m0 0" fill="#FEFEFE"/>
<path transform="translate(1745,1880)" d="m0 0" fill="#FEFEFE"/>
<path transform="translate(1303,1877)" d="m0 0" fill="#FEFEFE"/>
<path transform="translate(1258,1855)" d="m0 0" fill="#FEFEFE"/>
<path transform="translate(1727,1854)" d="m0 0" fill="#FEFEFE"/>
<path transform="translate(1731,1853)" d="m0 0" fill="#FEFEFE"/>
<path transform="translate(1718,1841)" d="m0 0" fill="#FEFEFE"/>
<path transform="translate(1717,1840)" d="m0 0" fill="#FEFEFE"/>
<path transform="translate(1716,1839)" d="m0 0" fill="#FEFEFE"/>
<path transform="translate(1714,1836)" d="m0 0" fill="#FEFEFE"/>
<path transform="translate(1238,1809)" d="m0 0" fill="#FEFEFE"/>
<path transform="translate(1237,1808)" d="m0 0" fill="#FEFEFE"/>
<path transform="translate(1236,1807)" d="m0 0" fill="#FEFEFE"/>
<path transform="translate(1230,1802)" d="m0 0" fill="#FEFEFE"/>
<path transform="translate(1229,1801)" d="m0 0" fill="#FEFEFE"/>
<path transform="translate(1228,1800)" d="m0 0" fill="#FEFEFE"/>
<path transform="translate(1227,1799)" d="m0 0" fill="#FEFEFE"/>
<path transform="translate(1226,1798)" d="m0 0" fill="#FEFEFE"/>
<path transform="translate(1228,1797)" d="m0 0" fill="#FEFEFE"/>
<path transform="translate(1225,1797)" d="m0 0" fill="#FEFEFE"/>
<path transform="translate(1227,1796)" d="m0 0" fill="#FEFEFE"/>
<path transform="translate(1224,1796)" d="m0 0" fill="#FEFEFE"/>
<path transform="translate(1226,1795)" d="m0 0" fill="#FEFEFE"/>
<path transform="translate(1223,1795)" d="m0 0" fill="#FEFEFE"/>
<path transform="translate(1225,1794)" d="m0 0" fill="#FEFEFE"/>
<path transform="translate(1224,1793)" d="m0 0" fill="#FEFEFE"/>
<path transform="translate(1220,1792)" d="m0 0" fill="#FEFEFE"/>
<path transform="translate(1219,1791)" d="m0 0" fill="#FEFEFE"/>
<path transform="translate(1218,1790)" d="m0 0" fill="#FEFEFE"/>
<path transform="translate(1217,1789)" d="m0 0" fill="#FEFEFE"/>
<path transform="translate(1216,1788)" d="m0 0" fill="#FEFEFE"/>
<path transform="translate(1215,1787)" d="m0 0" fill="#FEFEFE"/>
<path transform="translate(1214,1786)" d="m0 0" fill="#FEFEFE"/>
<path transform="translate(1213,1785)" d="m0 0" fill="#FEFEFE"/>
<path transform="translate(1212,1784)" d="m0 0" fill="#FEFEFE"/>
<path transform="translate(1157,1724)" d="m0 0" fill="#FEFEFE"/>
<path transform="translate(1153,1720)" d="m0 0" fill="#FEFEFE"/>
<path transform="translate(1121,1676)" d="m0 0" fill="#FEFEFE"/>
<path transform="translate(1553,1658)" d="m0 0" fill="#FEFEFE"/>
<path transform="translate(1533,1638)" d="m0 0" fill="#FEFEFE"/>
<path transform="translate(1522,1628)" d="m0 0" fill="#FEFEFE"/>
<path transform="translate(1518,1623)" d="m0 0" fill="#FEFEFE"/>
<path transform="translate(1517,1622)" d="m0 0" fill="#FEFEFE"/>
<path transform="translate(1516,1621)" d="m0 0" fill="#FEFEFE"/>
<path transform="translate(1036,1589)" d="m0 0" fill="#FEFEFE"/>
<path transform="translate(1027,1585)" d="m0 0" fill="#FEFEFE"/>
<path transform="translate(1451,1556)" d="m0 0" fill="#FEFEFE"/>
<path transform="translate(971,1521)" d="m0 0" fill="#FEFEFE"/>
<path transform="translate(957,1512)" d="m0 0" fill="#FEFEFE"/>
<path transform="translate(956,1511)" d="m0 0" fill="#FEFEFE"/>
<path transform="translate(955,1510)" d="m0 0" fill="#FEFEFE"/>
<path transform="translate(954,1509)" d="m0 0" fill="#FEFEFE"/>
<path transform="translate(953,1508)" d="m0 0" fill="#FEFEFE"/>
<path transform="translate(952,1507)" d="m0 0" fill="#FEFEFE"/>
<path transform="translate(737,1507)" d="m0 0" fill="#FEFEFE"/>
<path transform="translate(951,1506)" d="m0 0" fill="#FEFEFE"/>
<path transform="translate(1402,1505)" d="m0 0" fill="#FEFEFE"/>
<path transform="translate(950,1505)" d="m0 0" fill="#FEFEFE"/>
<path transform="translate(1401,1504)" d="m0 0" fill="#FEFEFE"/>
<path transform="translate(1400,1503)" d="m0 0" fill="#FEFEFE"/>
<path transform="translate(1391,1502)" d="m0 0" fill="#FEFEFE"/>
<path transform="translate(947,1502)" d="m0 0" fill="#FEFEFE"/>
<path transform="translate(1389,1500)" d="m0 0" fill="#FEFEFE"/>
<path transform="translate(1388,1499)" d="m0 0" fill="#FEFEFE"/>
<path transform="translate(1387,1498)" d="m0 0" fill="#FEFEFE"/>
<path transform="translate(734,1497)" d="m0 0" fill="#FEFEFE"/>
<path transform="translate(1387,1496)" d="m0 0" fill="#FEFEFE"/>
<path transform="translate(1383,1492)" d="m0 0" fill="#FEFEFE"/>
<path transform="translate(730,1492)" d="m0 0" fill="#FEFEFE"/>
<path transform="translate(934,1490)" d="m0 0" fill="#FEFEFE"/>
<path transform="translate(933,1489)" d="m0 0" fill="#FEFEFE"/>
<path transform="translate(932,1488)" d="m0 0" fill="#FEFEFE"/>
<path transform="translate(931,1487)" d="m0 0" fill="#FEFEFE"/>
<path transform="translate(930,1486)" d="m0 0" fill="#FEFEFE"/>
<path transform="translate(929,1485)" d="m0 0" fill="#FEFEFE"/>
<path transform="translate(921,1477)" d="m0 0" fill="#FEFEFE"/>
<path transform="translate(920,1476)" d="m0 0" fill="#FEFEFE"/>
<path transform="translate(919,1475)" d="m0 0" fill="#FEFEFE"/>
<path transform="translate(921,1474)" d="m0 0" fill="#FEFEFE"/>
<path transform="translate(918,1474)" d="m0 0" fill="#FEFEFE"/>
<path transform="translate(917,1473)" d="m0 0" fill="#FEFEFE"/>
<path transform="translate(916,1472)" d="m0 0" fill="#FEFEFE"/>
<path transform="translate(915,1471)" d="m0 0" fill="#FEFEFE"/>
<path transform="translate(914,1470)" d="m0 0" fill="#FEFEFE"/>
<path transform="translate(913,1469)" d="m0 0" fill="#FEFEFE"/>
<path transform="translate(912,1468)" d="m0 0" fill="#FEFEFE"/>
<path transform="translate(911,1467)" d="m0 0" fill="#FEFEFE"/>
<path transform="translate(913,1466)" d="m0 0" fill="#FEFEFE"/>
<path transform="translate(910,1466)" d="m0 0" fill="#FEFEFE"/>
<path transform="translate(912,1465)" d="m0 0" fill="#FEFEFE"/>
<path transform="translate(909,1465)" d="m0 0" fill="#FEFEFE"/>
<path transform="translate(908,1464)" d="m0 0" fill="#FEFEFE"/>
<path transform="translate(907,1463)" d="m0 0" fill="#FEFEFE"/>
<path transform="translate(906,1462)" d="m0 0" fill="#FEFEFE"/>
<path transform="translate(905,1461)" d="m0 0" fill="#FEFEFE"/>
<path transform="translate(904,1460)" d="m0 0" fill="#FEFEFE"/>
<path transform="translate(903,1459)" d="m0 0" fill="#FEFEFE"/>
<path transform="translate(902,1458)" d="m0 0" fill="#FEFEFE"/>
<path transform="translate(901,1457)" d="m0 0" fill="#FEFEFE"/>
<path transform="translate(900,1456)" d="m0 0" fill="#FEFEFE"/>
<path transform="translate(1348,1455)" d="m0 0" fill="#FEFEFE"/>
<path transform="translate(899,1455)" d="m0 0" fill="#FEFEFE"/>
<path transform="translate(1347,1454)" d="m0 0" fill="#FEFEFE"/>
<path transform="translate(898,1454)" d="m0 0" fill="#FEFEFE"/>
<path transform="translate(1346,1453)" d="m0 0" fill="#FEFEFE"/>
<path transform="translate(900,1453)" d="m0 0" fill="#FEFEFE"/>
<path transform="translate(897,1453)" d="m0 0" fill="#FEFEFE"/>
<path transform="translate(1345,1452)" d="m0 0" fill="#FEFEFE"/>
<path transform="translate(899,1452)" d="m0 0" fill="#FEFEFE"/>
<path transform="translate(896,1452)" d="m0 0" fill="#FEFEFE"/>
<path transform="translate(1344,1451)" d="m0 0" fill="#FEFEFE"/>
<path transform="translate(898,1451)" d="m0 0" fill="#FEFEFE"/>
<path transform="translate(1343,1450)" d="m0 0" fill="#FEFEFE"/>
<path transform="translate(1341,1448)" d="m0 0" fill="#FEFEFE"/>
<path transform="translate(1340,1447)" d="m0 0" fill="#FEFEFE"/>
<path transform="translate(894,1447)" d="m0 0" fill="#FEFEFE"/>
<path transform="translate(1339,1446)" d="m0 0" fill="#FEFEFE"/>
<path transform="translate(1337,1444)" d="m0 0" fill="#FEFEFE"/>
<path transform="translate(1336,1443)" d="m0 0" fill="#FEFEFE"/>
<path transform="translate(379,1443)" d="m0 0" fill="#FEFEFE"/>
<path transform="translate(1335,1442)" d="m0 0" fill="#FEFEFE"/>
<path transform="translate(1333,1440)" d="m0 0" fill="#FEFEFE"/>
<path transform="translate(1332,1439)" d="m0 0" fill="#FEFEFE"/>
<path transform="translate(828,1384)" d="m0 0" fill="#FEFEFE"/>
<path transform="translate(827,1383)" d="m0 0" fill="#FEFEFE"/>
<path transform="translate(826,1382)" d="m0 0" fill="#FEFEFE"/>
<path transform="translate(825,1381)" d="m0 0" fill="#FEFEFE"/>
<path transform="translate(821,1381)" d="m0 0" fill="#FEFEFE"/>
<path transform="translate(817,1379)" d="m0 0" fill="#FEFEFE"/>
<path transform="translate(1240,1333)" d="m0 0" fill="#FEFEFE"/>
<path transform="translate(1239,1332)" d="m0 0" fill="#FEFEFE"/>
<path transform="translate(1238,1331)" d="m0 0" fill="#FEFEFE"/>
<path transform="translate(1209,1270)" d="m0 0" fill="#FEFEFE"/>
<path transform="translate(1261,1170)" d="m0 0" fill="#FEFEFE"/>
<path transform="translate(1267,1165)" d="m0 0" fill="#FEFEFE"/>
<path transform="translate(1268,1164)" d="m0 0" fill="#FEFEFE"/>
<path transform="translate(1269,1163)" d="m0 0" fill="#FEFEFE"/>
<path transform="translate(1270,1162)" d="m0 0" fill="#FEFEFE"/>
<path transform="translate(1271,1161)" d="m0 0" fill="#FEFEFE"/>
<path transform="translate(1272,1160)" d="m0 0" fill="#FEFEFE"/>
<path transform="translate(1274,1158)" d="m0 0" fill="#FEFEFE"/>
<path transform="translate(1279,1154)" d="m0 0" fill="#FEFEFE"/>
<path transform="translate(1280,1153)" d="m0 0" fill="#FEFEFE"/>
<path transform="translate(1281,1152)" d="m0 0" fill="#FEFEFE"/>
<path transform="translate(1380,1062)" d="m0 0" fill="#FEFEFE"/>
<path transform="translate(1381,1061)" d="m0 0" fill="#FEFEFE"/>
<path transform="translate(908,1050)" d="m0 0" fill="#FEFEFE"/>
<path transform="translate(909,1049)" d="m0 0" fill="#FEFEFE"/>
<path transform="translate(910,1048)" d="m0 0" fill="#FEFEFE"/>
<path transform="translate(911,1047)" d="m0 0" fill="#FEFEFE"/>
<path transform="translate(912,1046)" d="m0 0" fill="#FEFEFE"/>
<path transform="translate(913,1045)" d="m0 0" fill="#FEFEFE"/>
<path transform="translate(914,1044)" d="m0 0" fill="#FEFEFE"/>
<path transform="translate(915,1043)" d="m0 0" fill="#FEFEFE"/>
<path transform="translate(923,1036)" d="m0 0" fill="#FEFEFE"/>
<path transform="translate(928,1032)" d="m0 0" fill="#FEFEFE"/>
<path transform="translate(929,1031)" d="m0 0" fill="#FEFEFE"/>
<path transform="translate(935,1026)" d="m0 0" fill="#FEFEFE"/>
<path transform="translate(920,1024)" d="m0 0" fill="#FEFEFE"/>
<path transform="translate(1458 1e3)" d="m0 0" fill="#FEFEFE"/>
<path transform="translate(976,987)" d="m0 0" fill="#FEFEFE"/>
<path transform="translate(977,986)" d="m0 0" fill="#FEFEFE"/>
<path transform="translate(978,985)" d="m0 0" fill="#FEFEFE"/>
<path transform="translate(979,984)" d="m0 0" fill="#FEFEFE"/>
<path transform="translate(998,972)" d="m0 0" fill="#FEFEFE"/>
<path transform="translate(999,971)" d="m0 0" fill="#FEFEFE"/>
<path transform="translate(1007,968)" d="m0 0" fill="#FEFEFE"/>
<path transform="translate(1008,967)" d="m0 0" fill="#FEFEFE"/>
<path transform="translate(1010,965)" d="m0 0" fill="#FEFEFE"/>
<path transform="translate(1011,964)" d="m0 0" fill="#FEFEFE"/>
<path transform="translate(1012,963)" d="m0 0" fill="#FEFEFE"/>
<path transform="translate(1015,960)" d="m0 0" fill="#FEFEFE"/>
<path transform="translate(1016,959)" d="m0 0" fill="#FEFEFE"/>
<path transform="translate(1027,950)" d="m0 0" fill="#FEFEFE"/>
<path transform="translate(1021,949)" d="m0 0" fill="#FEFEFE"/>
<path transform="translate(1022,948)" d="m0 0" fill="#FEFEFE"/>
<path transform="translate(1030,947)" d="m0 0" fill="#FEFEFE"/>
<path transform="translate(1034,943)" d="m0 0" fill="#FEFEFE"/>
<path transform="translate(1525,937)" d="m0 0" fill="#FEFEFE"/>
<path transform="translate(1061,912)" d="m0 0" fill="#FEFEFE"/>
<path transform="translate(1566,903)" d="m0 0" fill="#FEFEFE"/>
<path transform="translate(1571,899)" d="m0 0" fill="#FEFEFE"/>
<path transform="translate(1579,892)" d="m0 0" fill="#FEFEFE"/>
<path transform="translate(1580,891)" d="m0 0" fill="#FEFEFE"/>
<path transform="translate(1088,887)" d="m0 0" fill="#FEFEFE"/>
<path transform="translate(1089,886)" d="m0 0" fill="#FEFEFE"/>
<path transform="translate(1090,885)" d="m0 0" fill="#FEFEFE"/>
<path transform="translate(1109,875)" d="m0 0" fill="#FEFEFE"/>
<path transform="translate(1102,875)" d="m0 0" fill="#FEFEFE"/>
<path transform="translate(1107,871)" d="m0 0" fill="#FEFEFE"/>
<path transform="translate(1108,870)" d="m0 0" fill="#FEFEFE"/>
<path transform="translate(1107,869)" d="m0 0" fill="#FEFEFE"/>
<path transform="translate(1123,864)" d="m0 0" fill="#FEFEFE"/>
<path transform="translate(1613,863)" d="m0 0" fill="#FEFEFE"/>
<path transform="translate(1614,862)" d="m0 0" fill="#FEFEFE"/>
<path transform="translate(1128,860)" d="m0 0" fill="#FEFEFE"/>
<path transform="translate(1617,859)" d="m0 0" fill="#FEFEFE"/>
<path transform="translate(1618,858)" d="m0 0" fill="#FEFEFE"/>
<path transform="translate(1133,856)" d="m0 0" fill="#FEFEFE"/>
<path transform="translate(1134,855)" d="m0 0" fill="#FEFEFE"/>
<path transform="translate(1137,852)" d="m0 0" fill="#FEFEFE"/>
<path transform="translate(1146,843)" d="m0 0" fill="#FEFEFE"/>
<path transform="translate(1147,842)" d="m0 0" fill="#FEFEFE"/>
<path transform="translate(1150,839)" d="m0 0" fill="#FEFEFE"/>
<path transform="translate(1151,838)" d="m0 0" fill="#FEFEFE"/>
<path transform="translate(1152,837)" d="m0 0" fill="#FEFEFE"/>
<path transform="translate(1153,836)" d="m0 0" fill="#FEFEFE"/>
<path transform="translate(1154,835)" d="m0 0" fill="#FEFEFE"/>
<path transform="translate(1158,831)" d="m0 0" fill="#FEFEFE"/>
<path transform="translate(1183,810)" d="m0 0" fill="#FEFEFE"/>
<path transform="translate(1184,809)" d="m0 0" fill="#FEFEFE"/>
<path transform="translate(1185,808)" d="m0 0" fill="#FEFEFE"/>
<path transform="translate(1186,807)" d="m0 0" fill="#FEFEFE"/>
<path transform="translate(1187,806)" d="m0 0" fill="#FEFEFE"/>
<path transform="translate(1240,751)" d="m0 0" fill="#FEFEFE"/>
<path transform="translate(1241,750)" d="m0 0" fill="#FEFEFE"/>
<path transform="translate(1242,749)" d="m0 0" fill="#FEFEFE"/>
<path transform="translate(1243,748)" d="m0 0" fill="#FEFEFE"/>
<path transform="translate(1247,745)" d="m0 0" fill="#FEFEFE"/>
<path transform="translate(1250,743)" d="m0 0" fill="#FEFEFE"/>
<path transform="translate(1256,740)" d="m0 0" fill="#FEFEFE"/>
<path transform="translate(1258,737)" d="m0 0" fill="#FEFEFE"/>
<path transform="translate(1262,736)" d="m0 0" fill="#FEFEFE"/>
<path transform="translate(1263,735)" d="m0 0" fill="#FEFEFE"/>
<path transform="translate(1268,732)" d="m0 0" fill="#FEFEFE"/>
<path transform="translate(1273,729)" d="m0 0" fill="#FEFEFE"/>
<path transform="translate(1274,728)" d="m0 0" fill="#FEFEFE"/>
<path transform="translate(1276,727)" d="m0 0" fill="#FEFEFE"/>
<path transform="translate(1277,726)" d="m0 0" fill="#FEFEFE"/>
<path transform="translate(1280,724)" d="m0 0" fill="#FEFEFE"/>
<path transform="translate(1281,723)" d="m0 0" fill="#FEFEFE"/>
<path transform="translate(1701,721)" d="m0 0" fill="#FEFEFE"/>
<path transform="translate(1311,705)" d="m0 0" fill="#FEFEFE"/>
<path transform="translate(1331,697)" d="m0 0" fill="#FEFEFE"/>
<path transform="translate(1349,692)" d="m0 0" fill="#FEFEFE"/>
<path transform="translate(751,579)" d="m0 0" fill="#FEFEFE"/>
<path transform="translate(748,577)" d="m0 0" fill="#FEFEFE"/>
<path transform="translate(751,571)" d="m0 0" fill="#FEFEFE"/>
<path transform="translate(751,560)" d="m0 0" fill="#FEFEFE"/>
<path transform="translate(756,513)" d="m0 0" fill="#FEFEFE"/>
<path transform="translate(870,483)" d="m0 0" fill="#FEFEFE"/>
<path transform="translate(867,481)" d="m0 0" fill="#FEFEFE"/>
<path transform="translate(866,480)" d="m0 0" fill="#FEFEFE"/>
<path transform="translate(862,480)" d="m0 0" fill="#FEFEFE"/>
<path transform="translate(859,478)" d="m0 0" fill="#FEFEFE"/>
<path transform="translate(857,477)" d="m0 0" fill="#FEFEFE"/>
<path transform="translate(782,474)" d="m0 0" fill="#FEFEFE"/>
<path transform="translate(783,473)" d="m0 0" fill="#FEFEFE"/>
<path transform="translate(932,293)" d="m0 0" fill="#FEFEFE"/>
<path transform="translate(901,283)" d="m0 0" fill="#FEFEFE"/>
<path transform="translate(981,280)" d="m0 0" fill="#FEFEFE"/>
<path transform="translate(885,271)" d="m0 0" fill="#FEFEFE"/>
<path transform="translate(884,270)" d="m0 0" fill="#FEFEFE"/>
<path transform="translate(874,265)" d="m0 0" fill="#FEFEFE"/>
<path transform="translate(873,264)" d="m0 0" fill="#FEFEFE"/>
<path transform="translate(872,263)" d="m0 0" fill="#FEFEFE"/>
<path transform="translate(867,260)" d="m0 0" fill="#FEFEFE"/>
<path transform="translate(862,257)" d="m0 0" fill="#FEFEFE"/>
<path transform="translate(861,256)" d="m0 0" fill="#FEFEFE"/>
<path transform="translate(860,255)" d="m0 0" fill="#FEFEFE"/>
<path transform="translate(858,254)" d="m0 0" fill="#FEFEFE"/>
<path transform="translate(853,250)" d="m0 0" fill="#FEFEFE"/>
<path transform="translate(849,246)" d="m0 0" fill="#FEFEFE"/>
<path transform="translate(1035,240)" d="m0 0" fill="#FEFEFE"/>
<path transform="translate(1036,239)" d="m0 0" fill="#FEFEFE"/>
<path transform="translate(789,209)" d="m0 0" fill="#FEFEFE"/>
<path transform="translate(767,204)" d="m0 0" fill="#FEFEFE"/>
<path transform="translate(1371,201)" d="m0 0" fill="#FEFEFE"/>
<path transform="translate(1371,195)" d="m0 0" fill="#FEFEFE"/>
<path transform="translate(451,193)" d="m0 0" fill="#FEFEFE"/>
<path transform="translate(453,190)" d="m0 0" fill="#FEFEFE"/>
<path transform="translate(460,188)" d="m0 0" fill="#FEFEFE"/>
<path transform="translate(1054,168)" d="m0 0" fill="#FEFEFE"/>
<path transform="translate(1360,138)" d="m0 0" fill="#FEFEFE"/>
<path transform="translate(1089,81)" d="m0 0" fill="#FEFEFE"/>
<path transform="translate(1091,80)" d="m0 0" fill="#FEFEFE"/>
<path transform="translate(1093,79)" d="m0 0" fill="#FEFEFE"/>
<path transform="translate(1102,74)" d="m0 0" fill="#FEFEFE"/>
<path transform="translate(1339,72)" d="m0 0" fill="#FEFEFE"/>
<path transform="translate(1338,71)" d="m0 0" fill="#FEFEFE"/>
<path transform="translate(1337,70)" d="m0 0" fill="#FEFEFE"/>
<path transform="translate(1297,45)" d="m0 0" fill="#FEFEFE"/>
</svg>
